<?xml version="1.0" encoding="utf-8"?>
<!-- Generator: Adobe Illustrator 16.0.0, SVG Export Plug-In . SVG Version: 6.00 Build 0)  -->
<!DOCTYPE svg PUBLIC "-//W3C//DTD SVG 1.1//EN" "http://www.w3.org/Graphics/SVG/1.1/DTD/svg11.dtd">
<svg version="1.1" id="Layer_1" xmlns="http://www.w3.org/2000/svg" xmlns:xlink="http://www.w3.org/1999/xlink" x="0px" y="0px"
	 width="159.3px" height="65.5px" viewBox="35.3 0 159.3 65.5" enable-background="new 35.3 0 159.3 65.5" xml:space="preserve">
<metadata><?xpacket begin="﻿" id="W5M0MpCehiHzreSzNTczkc9d"?>
<x:xmpmeta xmlns:x="adobe:ns:meta/" x:xmptk="Adobe XMP Core 5.3-c011 66.145661, 2012/02/06-14:56:27        ">
   <rdf:RDF xmlns:rdf="http://www.w3.org/1999/02/22-rdf-syntax-ns#">
      <rdf:Description rdf:about=""
            xmlns:dc="http://purl.org/dc/elements/1.1/">
         <dc:format>image/svg+xml</dc:format>
         <dc:title>
            <rdf:Alt>
               <rdf:li xml:lang="x-default">Print</rdf:li>
            </rdf:Alt>
         </dc:title>
      </rdf:Description>
      <rdf:Description rdf:about=""
            xmlns:xmp="http://ns.adobe.com/xap/1.0/"
            xmlns:xmpGImg="http://ns.adobe.com/xap/1.0/g/img/">
         <xmp:MetadataDate>2017-12-13T10:33:53+07:00</xmp:MetadataDate>
         <xmp:ModifyDate>2017-12-13T10:33:53+07:00</xmp:ModifyDate>
         <xmp:CreateDate>2017-12-13T10:33:52+07:00</xmp:CreateDate>
         <xmp:CreatorTool>Adobe Illustrator CS6 (Windows)</xmp:CreatorTool>
         <xmp:Thumbnails>
            <rdf:Alt>
               <rdf:li rdf:parseType="Resource">
                  <xmpGImg:width>256</xmpGImg:width>
                  <xmpGImg:height>100</xmpGImg:height>
                  <xmpGImg:format>JPEG</xmpGImg:format>
                  <xmpGImg:image>/9j/4AAQSkZJRgABAgEASABIAAD/7QAsUGhvdG9zaG9wIDMuMAA4QklNA+0AAAAAABAASAAAAAEA&#xA;AQBIAAAAAQAB/+4ADkFkb2JlAGTAAAAAAf/bAIQABgQEBAUEBgUFBgkGBQYJCwgGBggLDAoKCwoK&#xA;DBAMDAwMDAwQDA4PEA8ODBMTFBQTExwbGxscHx8fHx8fHx8fHwEHBwcNDA0YEBAYGhURFRofHx8f&#xA;Hx8fHx8fHx8fHx8fHx8fHx8fHx8fHx8fHx8fHx8fHx8fHx8fHx8fHx8fHx8f/8AAEQgAZAEAAwER&#xA;AAIRAQMRAf/EAaIAAAAHAQEBAQEAAAAAAAAAAAQFAwIGAQAHCAkKCwEAAgIDAQEBAQEAAAAAAAAA&#xA;AQACAwQFBgcICQoLEAACAQMDAgQCBgcDBAIGAnMBAgMRBAAFIRIxQVEGE2EicYEUMpGhBxWxQiPB&#xA;UtHhMxZi8CRygvElQzRTkqKyY3PCNUQnk6OzNhdUZHTD0uIIJoMJChgZhJRFRqS0VtNVKBry4/PE&#xA;1OT0ZXWFlaW1xdXl9WZ2hpamtsbW5vY3R1dnd4eXp7fH1+f3OEhYaHiImKi4yNjo+Ck5SVlpeYmZ&#xA;qbnJ2en5KjpKWmp6ipqqusra6voRAAICAQIDBQUEBQYECAMDbQEAAhEDBCESMUEFURNhIgZxgZEy&#xA;obHwFMHR4SNCFVJicvEzJDRDghaSUyWiY7LCB3PSNeJEgxdUkwgJChgZJjZFGidkdFU38qOzwygp&#xA;0+PzhJSktMTU5PRldYWVpbXF1eX1RlZmdoaWprbG1ub2R1dnd4eXp7fH1+f3OEhYaHiImKi4yNjo&#xA;+DlJWWl5iZmpucnZ6fkqOkpaanqKmqq6ytrq+v/aAAwDAQACEQMRAD8A9U4qsnnhghknnkWKGJS8&#xA;kjkKqqoqWYnYADEmmUYmRAAsl88/ml+cdzrckmkeX5Xt9HX4ZrlapJc+Pusft1PfwzV6jVcW0eT6&#xA;F2J7PRwgZMwvJ0HSP7fuYp5P/MrzV5UPp6fcCWyY1exuAXhr4qKhkP8Aqke+UYs8ocna9odj4NVv&#xA;MVL+cOf7fi9Q0j/nJDTJOCavpE1udg0ttIsq/Pg4jIH0nMyOuHUPMaj2QmP7uYPvFfreleWvOXlv&#xA;zLA0uj3qXBQAyw7pKlf5o2AYD36Zl48sZ8i81rOz82mNZI193zTrLHCdirsVdirsVdirsVdirsVd&#xA;irsVdirsVdirsVdirsVdirsVdirsVdirsVdirsVdirsVfPX50/me+q3UvlvSJaaVbtxvZkO1xKh+&#xA;yCP91oR9J+jNXqtRxHhHJ9C9nexRiiM2Qes8h/NH6z9jybMJ6x2KuxVP/KVl5zGpQah5atbuS7ga&#xA;qT28bso8Q7U4cT0IbbLcYndxdfr8mm4DDPKPCehP4L6m8uan5jvrKJ9Y0gaXclR6qeukq18V4ciK&#xA;+B6eObiEpEbiny7WYcMJEY58cfcR96c5Y4TsVdirsVdirsVdirsVdirsVdirsVdirsVdirsVdirs&#xA;VdirsVdirsVdirsVdirCfzg80zeXvJVzLbNwvL5hZ27jqpkDF3HuEVqHxpmPqcnDDbq7v2f0Q1Gp&#xA;Al9MfUfh+18r5pn1NUhhmmkEcMbSSN9lEBZj8gMIDGUhEWTTJ/Lf5Y+c9eu1gt9OltYdjJd3aPDC&#xA;qnvVhVvkoJy7Hp5yPJ1ms7a02CNmQke6O5/Hve5+TvyX8paDEkt5Cur6jsWnuVBiU/8AFcJqo+bV&#xA;PvmxxaWMee5eG7Q9otRnNRPhw7hz+J/sZ+iIiBEUKiiiqooAB2AGZLoCSdy3ih2KuxV2KuxV2Kux&#xA;V2KuxV2KuxV2KuxV2KuxV2KuxV2KuxV2KuxV2KuxV2KuxV2Kvn3/AJyE80W9/rNlodrKJE0xXe7K&#xA;mo9eWg4H3RV/4amazW5LIiOj6D7J6I48cssh9fL3Dr8f0Md/KHyRZea/MrxahU6dYxevcRKeJkJY&#xA;KkdRuASakjwp3yrTYhOW/IOw7f7SlpcFw+uRoeXm+mdN0jS9Mtxb6daQ2kCgARwoqDbx4gVzbRiB&#xA;yfM82fJlNzkZHzReSanYq7FXYq7FXYq7FXYq7FXYq7FXYq7FXYq7FXYq7FXYq7FXYq7FXYq7FXYq&#xA;7FXYq7FXYq7FXxz5r8uax5f1u40/VUYXCuzLO1eMyEmkqMftBv7DvmiyQMTRfYtDrMeoxCePl3d3&#xA;k9D/AOccZCPNGpx8tmseXHx4zIK/RyzK0P1H3PPe14/cQP8AT/QX0HmzfPnYq7FXYq7FXYq7FXYq&#xA;7FXYq7FXYq7FXYq7FXYq7FXYq7FXYq7FXYq7FXYq7FXYq7FXYq7FXYqxn8w/J9r5o8s3Vi0am9jR&#xA;pdPmoOSTKKqAewf7Le2U58QnGurs+ye0JaXOJX6eUvd+x4p/zj5dRW/n2WGQ0e6sZoYwdjyV45SP&#xA;+BjOYGiNT+D2vtXAy0gI/hmD9hH6X0jm1fN3Yq7FXYq7FXYq7FXYq7FXYq7FXYq7FXYq7FXYq7FX&#xA;Yq7FXYq7FXYq7FXYq7FXYq7FXYq7FXYq7FXz/N+SX5gW/mCbVdJuLW2ZLl57KT1mEijmWSoEZWtO&#xA;o6ZrDpJiVh7+PtJpJYRjyCR9IB225b9Xv0Pqeknq/wB5xHOnTlTfNmHgZVe3Jdih2KuxV2KuxV2K&#xA;uxV2KuxV2KuxV2KuxV2KuxV2KuxV2KuxV2KuxV2KuxV2KuxV2KuxV2KuxV2KuxV2KuxV2KuxV2Ku&#xA;xV2KuxV2KuxV2KuxV2KuxV2KuxV2KuxV2KuxV2KuxV2KuxV2KuxV2KuxV2KuxV2KuxV2KuxV2Kux&#xA;V2KuxV2KuxV2KuxV2KuxV2KuxV2KuxV2KuxV2KuxV2KuxV2KuxV2KuxV2KuxV2KuxV2KuxV2KuxV&#xA;2KuxV2KuxV2KuxV2KuxV2KuxV2KuxV2KuxV2KuxV2KuxV2KuxV2KuxV2KuxV2KuxV2KuxV2KuxV2&#xA;KuxV2KuxV2KuxV2KuxV2KuxV2KuxV2KuxV2KuxV2KuxV2KuxV2KuxV2KuxV2KuxV2KuxV2KuxV2K&#xA;uxV2KuxV2KuxV2KuxV2KuxV2KuxV2KuxV2KuxV2KuxV2KuxV2KuxV2KuxV2KuxV2KuxV2KuxV2Ku&#xA;xV2KuxV2KuxV2KuxV2KuxV2KuxV2KuxV2KuxV2KuxV2KuxV2KuxV2KuxV2KuxV2KuxV2KuxV2Kux&#xA;V2KuxV//2Q==</xmpGImg:image>
               </rdf:li>
            </rdf:Alt>
         </xmp:Thumbnails>
      </rdf:Description>
      <rdf:Description rdf:about=""
            xmlns:xmpMM="http://ns.adobe.com/xap/1.0/mm/"
            xmlns:stRef="http://ns.adobe.com/xap/1.0/sType/ResourceRef#"
            xmlns:stEvt="http://ns.adobe.com/xap/1.0/sType/ResourceEvent#">
         <xmpMM:InstanceID>xmp.iid:D89A1F4AB4DFE7118601F5C946CCCA63</xmpMM:InstanceID>
         <xmpMM:DocumentID>xmp.did:D89A1F4AB4DFE7118601F5C946CCCA63</xmpMM:DocumentID>
         <xmpMM:OriginalDocumentID>uuid:5D20892493BFDB11914A8590D31508C8</xmpMM:OriginalDocumentID>
         <xmpMM:RenditionClass>proof:pdf</xmpMM:RenditionClass>
         <xmpMM:DerivedFrom rdf:parseType="Resource">
            <stRef:instanceID>xmp.iid:1174C583BB41E611948CEDE3318218BA</stRef:instanceID>
            <stRef:documentID>xmp.did:1174C583BB41E611948CEDE3318218BA</stRef:documentID>
            <stRef:originalDocumentID>uuid:5D20892493BFDB11914A8590D31508C8</stRef:originalDocumentID>
            <stRef:renditionClass>proof:pdf</stRef:renditionClass>
         </xmpMM:DerivedFrom>
         <xmpMM:History>
            <rdf:Seq>
               <rdf:li rdf:parseType="Resource">
                  <stEvt:action>saved</stEvt:action>
                  <stEvt:instanceID>xmp.iid:B0318B8CD263E311AC15CEB932328228</stEvt:instanceID>
                  <stEvt:when>2013-12-13T15:42:50+07:00</stEvt:when>
                  <stEvt:softwareAgent>Adobe Illustrator CS6 (Windows)</stEvt:softwareAgent>
                  <stEvt:changed>/</stEvt:changed>
               </rdf:li>
               <rdf:li rdf:parseType="Resource">
                  <stEvt:action>saved</stEvt:action>
                  <stEvt:instanceID>xmp.iid:B3318B8CD263E311AC15CEB932328228</stEvt:instanceID>
                  <stEvt:when>2013-12-13T16:34:06+07:00</stEvt:when>
                  <stEvt:softwareAgent>Adobe Illustrator CS6 (Windows)</stEvt:softwareAgent>
                  <stEvt:changed>/</stEvt:changed>
               </rdf:li>
               <rdf:li rdf:parseType="Resource">
                  <stEvt:action>converted</stEvt:action>
                  <stEvt:parameters>from application/postscript to application/vnd.adobe.illustrator</stEvt:parameters>
               </rdf:li>
               <rdf:li rdf:parseType="Resource">
                  <stEvt:action>saved</stEvt:action>
                  <stEvt:instanceID>xmp.iid:2af6a1d4-0541-1a47-ae5a-2fb086a50b72</stEvt:instanceID>
                  <stEvt:when>2016-07-04T14:38:10+07:00</stEvt:when>
                  <stEvt:softwareAgent>Adobe Illustrator CC 2014 (Windows)</stEvt:softwareAgent>
                  <stEvt:changed>/</stEvt:changed>
               </rdf:li>
               <rdf:li rdf:parseType="Resource">
                  <stEvt:action>saved</stEvt:action>
                  <stEvt:instanceID>xmp.iid:D89A1F4AB4DFE7118601F5C946CCCA63</stEvt:instanceID>
                  <stEvt:when>2017-12-13T10:33:53+07:00</stEvt:when>
                  <stEvt:softwareAgent>Adobe Illustrator CS6 (Windows)</stEvt:softwareAgent>
                  <stEvt:changed>/</stEvt:changed>
               </rdf:li>
            </rdf:Seq>
         </xmpMM:History>
      </rdf:Description>
      <rdf:Description rdf:about=""
            xmlns:illustrator="http://ns.adobe.com/illustrator/1.0/">
         <illustrator:StartupProfile>Print</illustrator:StartupProfile>
      </rdf:Description>
      <rdf:Description rdf:about=""
            xmlns:xmpTPg="http://ns.adobe.com/xap/1.0/t/pg/"
            xmlns:stDim="http://ns.adobe.com/xap/1.0/sType/Dimensions#"
            xmlns:xmpG="http://ns.adobe.com/xap/1.0/g/">
         <xmpTPg:HasVisibleOverprint>False</xmpTPg:HasVisibleOverprint>
         <xmpTPg:HasVisibleTransparency>False</xmpTPg:HasVisibleTransparency>
         <xmpTPg:NPages>1</xmpTPg:NPages>
         <xmpTPg:MaxPageSize rdf:parseType="Resource">
            <stDim:w>56.179861</stDim:w>
            <stDim:h>23.106944</stDim:h>
            <stDim:unit>Millimeters</stDim:unit>
         </xmpTPg:MaxPageSize>
         <xmpTPg:PlateNames>
            <rdf:Seq>
               <rdf:li>Cyan</rdf:li>
               <rdf:li>Magenta</rdf:li>
               <rdf:li>Yellow</rdf:li>
               <rdf:li>Black</rdf:li>
            </rdf:Seq>
         </xmpTPg:PlateNames>
         <xmpTPg:SwatchGroups>
            <rdf:Seq>
               <rdf:li rdf:parseType="Resource">
                  <xmpG:groupName>Default Swatch Group</xmpG:groupName>
                  <xmpG:groupType>0</xmpG:groupType>
               </rdf:li>
            </rdf:Seq>
         </xmpTPg:SwatchGroups>
      </rdf:Description>
      <rdf:Description rdf:about=""
            xmlns:pdf="http://ns.adobe.com/pdf/1.3/">
         <pdf:Producer>Adobe PDF library 10.01</pdf:Producer>
      </rdf:Description>
   </rdf:RDF>
</x:xmpmeta>
                                                                                                    
                                                                                                    
                                                                                                    
                                                                                                    
                                                                                                    
                                                                                                    
                                                                                                    
                                                                                                    
                                                                                                    
                                                                                                    
                                                                                                    
                                                                                                    
                                                                                                    
                                                                                                    
                                                                                                    
                                                                                                    
                                                                                                    
                                                                                                    
                                                                                                    
                                                                                                    
                           
<?xpacket end="w"?>
	</metadata>
<path fill="#FFFFFF" d="M118,32.6l3.4,11.7l3.1-10.8c0.3-1.2,0.6-1.9,0.8-2.3c0.2-0.4,0.5-0.8,0.9-1.2c0.5-0.4,1.1-0.6,1.8-0.6
	c0.8,0,1.3,0.2,1.8,0.6s0.8,0.8,1,1.3c0.2,0.5,0.4,1.2,0.8,2.3l3.1,10.8l3.5-11.7c0.2-0.9,0.4-1.4,0.6-1.8c0.1-0.4,0.4-0.7,0.7-1
	c0.3-0.3,0.8-0.4,1.4-0.4c0.6,0,1.2,0.2,1.6,0.7c0.5,0.4,0.7,1,0.7,1.5c0,0.6-0.2,1.3-0.6,2.4l-4.2,12.5c-0.4,1.1-0.7,1.8-0.9,2.3
	c-0.2,0.5-0.5,0.9-1,1.3c-0.5,0.4-1.1,0.6-1.8,0.6s-1.4-0.2-1.8-0.6c-0.5-0.4-0.8-0.9-1-1.4c-0.2-0.6-0.5-1.3-0.7-2.2L128,36.2
	l-2.9,10.1c-0.4,1.4-0.8,2.5-1.3,3.2c-0.5,0.7-1.3,1.1-2.3,1.1c-0.6,0-1.1-0.1-1.4-0.3c-0.4-0.2-0.8-0.6-1-1
	c-0.3-0.4-0.5-0.9-0.7-1.4c-0.2-0.6-0.4-1.1-0.5-1.3l-4.2-12.5c-0.4-1.2-0.7-2-0.7-2.4c0-0.6,0.2-1.1,0.7-1.5c0.5-0.5,1-0.7,1.6-0.7
	c0.9,0,1.4,0.3,1.7,0.8C117.4,30.6,117.7,31.4,118,32.6z"/>
<path fill="#FFFFFF" d="M159,41.3h-10.2c0,1.2,0.3,2.2,0.7,3.2c0.5,0.9,1.1,1.5,1.8,2c0.8,0.5,1.6,0.7,2.5,0.7
	c0.6,0,1.2-0.1,1.7-0.2c0.5-0.2,1.1-0.4,1.5-0.7c0.5-0.3,1-0.7,1.3-1c0.4-0.4,1-0.9,1.5-1.4c0.3-0.2,0.7-0.4,1.2-0.4
	c0.6,0,1,0.2,1.3,0.5c0.3,0.3,0.5,0.7,0.5,1.3c0,0.5-0.2,1.1-0.6,1.6c-0.4,0.7-1,1.3-1.6,1.8c-0.8,0.6-1.6,1.1-2.8,1.4
	c-1.2,0.4-2.4,0.6-3.9,0.6c-3.4,0-6-1-7.8-2.9c-1.8-1.9-2.8-4.5-2.8-7.8c0-1.5,0.2-3,0.7-4.2c0.5-1.3,1.2-2.4,2-3.4
	c0.9-1,1.9-1.6,3.3-2.1c1.3-0.5,2.7-0.8,4.2-0.8c2,0,3.8,0.4,5.2,1.3c1.4,0.9,2.5,1.9,3.3,3.4c0.8,1.3,1.1,2.8,1.1,4.1
	s-0.4,2.1-1.2,2.5C161.4,41.1,160.3,41.3,159,41.3z M148.8,38.3h9.4c-0.1-1.7-0.6-3.1-1.4-4c-0.9-0.9-1.9-1.3-3.3-1.3
	c-1.3,0-2.4,0.5-3.2,1.3C149.4,35.2,149,36.5,148.8,38.3z"/>
<path fill="#FFFFFF" d="M170,24.6v8c1-1.1,2-1.8,3-2.3c1.1-0.6,2.3-0.8,3.8-0.8c1.7,0,3.3,0.4,4.5,1.3c1.3,0.9,2.3,2,3,3.6
	c0.7,1.5,1.1,3.4,1.1,5.6c0,1.5-0.2,3-0.6,4.3c-0.4,1.3-1,2.5-1.7,3.5c-0.8,1-1.7,1.7-2.8,2.2c-1.1,0.5-2.3,0.8-3.6,0.8
	c-0.8,0-1.5-0.1-2.2-0.3c-0.7-0.2-1.3-0.5-1.8-0.8c-0.5-0.3-1-0.7-1.3-1c-0.4-0.3-0.8-0.9-1.3-1.4v0.5c0,1-0.2,1.7-0.7,2.2
	c-0.5,0.5-1.1,0.8-1.8,0.8c-0.8,0-1.3-0.3-1.7-0.8c-0.5-0.5-0.7-1.3-0.7-2.2V24.8c0-1.1,0.2-1.8,0.7-2.4c0.4-0.6,1.1-0.8,1.8-0.8
	c0.8,0,1.4,0.3,1.8,0.8C169.8,22.9,170,23.6,170,24.6z M170.3,40.1c0,2.1,0.5,3.7,1.4,4.8c1,1.2,2.2,1.6,3.8,1.6
	c1.3,0,2.4-0.6,3.4-1.7c1-1.2,1.4-2.8,1.4-4.9c0-1.3-0.2-2.6-0.6-3.6c-0.4-1-1-1.7-1.6-2.3c-0.8-0.6-1.5-0.8-2.5-0.8
	s-1.8,0.3-2.7,0.8c-0.8,0.6-1.3,1.3-1.8,2.3C170.5,37.4,170.3,38.7,170.3,40.1z"/>
<path fill="#FFFFFF" d="M88.1,26.9c-0.8,0-1.3-0.2-1.8-0.7c-0.5-0.5-0.8-1.1-0.8-1.9c0-0.8,0.3-1.3,0.8-1.8c0.5-0.5,1.2-0.7,1.8-0.7
	s1.3,0.2,1.8,0.7c0.5,0.4,0.8,1.1,0.8,1.9c0,0.8-0.3,1.4-0.8,1.9C89.4,26.7,88.9,26.9,88.1,26.9z M90.7,32.3v15
	c0,1.1-0.3,1.8-0.8,2.4s-1.2,0.8-1.9,0.8s-1.3-0.3-1.8-0.9s-0.7-1.3-0.7-2.3V32.5c0-1.1,0.2-1.8,0.7-2.3s1.1-0.8,1.8-0.8
	s1.3,0.3,1.9,0.8C90.5,30.7,90.7,31.4,90.7,32.3z"/>
<path fill="#FFFFFF" d="M109.2,35.2l-9.9,11.2h10.6c0.9,0,1.5,0.2,1.9,0.6c0.5,0.4,0.7,1,0.7,1.5s-0.2,1.1-0.7,1.4
	c-0.4,0.4-1.1,0.6-1.9,0.6H95.2c-1.1,0-1.8-0.2-2.3-0.7c-0.5-0.5-0.8-1.1-0.8-1.8c0-0.5,0.2-1,0.6-1.4s1.1-1.3,2.2-2.6
	c1.2-1.3,2.3-2.5,3.3-3.6s1.9-2.1,2.7-3c0.9-1,1.5-1.7,2.1-2.4s1-1.3,1.3-1.6h-8.2c-1.2,0-1.9-0.1-2.5-0.3c-0.6-0.2-0.9-0.8-0.9-1.5
	c0-0.6,0.2-1.2,0.7-1.4c0.4-0.4,1.1-0.6,1.8-0.6h12.4c1.2,0,2,0.2,2.7,0.5c0.6,0.4,1,1,1,1.8c0,0.3-0.1,0.6-0.2,0.9
	c-0.1,0.3-0.3,0.6-0.4,0.8c-0.2,0.2-0.4,0.5-0.6,0.8C109.9,34.5,109.6,34.8,109.2,35.2z"/>
<g>
	<g>
		<path fill="#FFFFFF" d="M106.8,53.2h1.3c0.7,0,1.1,0.1,1.3,0.3c0.3,0.2,0.4,0.5,0.4,0.9c0,0.3-0.1,0.5-0.2,0.7
			c-0.2,0.2-0.4,0.3-0.7,0.4l0,0c0.7,0.1,1.1,0.5,1.1,1.2c0,0.4-0.1,0.8-0.4,1c-0.3,0.2-0.7,0.4-1.2,0.4h-1.7V53.2z M107.3,55.2h0.9
			c0.4,0,0.7-0.1,0.9-0.2c0.2-0.1,0.3-0.3,0.3-0.6c0-0.3-0.1-0.5-0.3-0.6c-0.2-0.1-0.5-0.2-0.9-0.2h-0.8L107.3,55.2L107.3,55.2
			L107.3,55.2z M107.3,55.7v1.7h1c0.4,0,0.7-0.1,0.9-0.2c0.2-0.2,0.3-0.4,0.3-0.7c0-0.3-0.1-0.5-0.3-0.7c-0.2-0.1-0.5-0.2-0.9-0.2
			L107.3,55.7L107.3,55.7z"/>
		<path fill="#FFFFFF" d="M113.6,57.9l-0.1-0.5l0,0c-0.2,0.2-0.4,0.4-0.5,0.5c-0.2,0.1-0.4,0.1-0.7,0.1c-0.4,0-0.7-0.1-0.9-0.3
			c-0.2-0.2-0.3-0.5-0.3-0.8c0-0.7,0.6-1.1,1.7-1.2h0.6v-0.2c0-0.3-0.1-0.5-0.2-0.6c-0.1-0.1-0.3-0.2-0.6-0.2c-0.3,0-0.7,0.1-1,0.3
			l-0.2-0.5c0.2-0.1,0.4-0.2,0.6-0.2c0.2-0.1,0.4-0.1,0.6-0.1c0.4,0,0.8,0.1,1,0.3c0.2,0.2,0.3,0.5,0.3,0.9v2.4H113.6L113.6,57.9z
			 M112.5,57.5c0.3,0,0.6-0.1,0.8-0.3c0.2-0.2,0.3-0.5,0.3-0.8v-0.3h-0.6c-0.4,0-0.8,0.1-1,0.2c-0.2,0.1-0.3,0.3-0.3,0.6
			c0,0.2,0.1,0.4,0.2,0.5C112.1,57.4,112.3,57.5,112.5,57.5z M112.3,53.8c0.1-0.1,0.2-0.3,0.3-0.5c0.1-0.2,0.2-0.4,0.3-0.5h0.7v0.1
			c-0.1,0.1-0.2,0.3-0.4,0.5c-0.2,0.2-0.4,0.4-0.5,0.5L112.3,53.8L112.3,53.8z"/>
		<path fill="#FFFFFF" d="M118,57.9v-2.3c0-0.3-0.1-0.5-0.2-0.7c-0.1-0.1-0.3-0.2-0.6-0.2c-0.4,0-0.7,0.1-0.8,0.3
			c-0.2,0.2-0.3,0.6-0.3,1v1.8h-0.6v-3.6h0.5l0.1,0.5l0,0c0.1-0.2,0.3-0.3,0.5-0.4c0.2-0.1,0.4-0.1,0.7-0.1c0.4,0,0.8,0.1,1,0.3
			c0.2,0.2,0.3,0.6,0.3,1v2.3L118,57.9L118,57.9L118,57.9z"/>
		<path fill="#FFFFFF" d="M124.9,57.9v-2.3c0-0.3-0.1-0.5-0.2-0.7c-0.1-0.1-0.3-0.2-0.6-0.2c-0.4,0-0.7,0.1-0.8,0.3
			c-0.2,0.2-0.3,0.6-0.3,1v1.8h-0.6v-5h0.6v1.5c0,0.2,0,0.3,0,0.5l0,0c0.1-0.2,0.3-0.3,0.5-0.4s0.4-0.2,0.7-0.2c0.4,0,0.8,0.1,1,0.3
			c0.2,0.2,0.3,0.6,0.3,1v2.3L124.9,57.9L124.9,57.9z"/>
		<path fill="#FFFFFF" d="M129.1,57.9l-0.1-0.5l0,0c-0.2,0.2-0.4,0.4-0.5,0.5c-0.2,0.1-0.4,0.1-0.7,0.1c-0.4,0-0.6-0.1-0.9-0.3
			c-0.2-0.2-0.3-0.5-0.3-0.8c0-0.7,0.6-1.1,1.7-1.2h0.6v-0.2c0-0.3-0.1-0.5-0.2-0.6c-0.1-0.1-0.3-0.2-0.6-0.2s-0.7,0.1-1,0.3
			l-0.2-0.4c0.2-0.1,0.4-0.2,0.6-0.2c0.2-0.1,0.4-0.1,0.6-0.1c0.4,0,0.8,0.1,1,0.3c0.2,0.2,0.3,0.5,0.3,0.9V58L129.1,57.9
			L129.1,57.9L129.1,57.9z M128,57.5c0.3,0,0.6-0.1,0.8-0.3c0.2-0.2,0.3-0.5,0.3-0.8v-0.3h-0.6c-0.4,0-0.8,0.1-1,0.2
			c-0.2,0.1-0.3,0.3-0.3,0.6c0,0.2,0.1,0.4,0.2,0.5C127.6,57.4,127.8,57.5,128,57.5z M128.5,53.9h-0.4c-0.1-0.1-0.3-0.3-0.5-0.5
			c-0.2-0.2-0.3-0.4-0.4-0.5v-0.1h0.7c0.1,0.2,0.2,0.3,0.3,0.5C128.4,53.6,128.4,53.7,128.5,53.9L128.5,53.9z"/>
		<path fill="#FFFFFF" d="M133.6,57.9v-2.3c0-0.3-0.1-0.5-0.2-0.7c-0.1-0.1-0.3-0.2-0.6-0.2c-0.4,0-0.7,0.1-0.8,0.3
			c-0.2,0.2-0.3,0.6-0.3,1v1.8h-0.6v-3.6h0.5l0.1,0.5l0,0c0.1-0.2,0.3-0.3,0.5-0.4c0.2-0.1,0.4-0.1,0.7-0.1c0.4,0,0.8,0.1,1,0.3
			c0.2,0.2,0.3,0.6,0.3,1v2.3L133.6,57.9L133.6,57.9z"/>
		<path fill="#FFFFFF" d="M138.6,54.4v0.4l-0.7,0.1c0.1,0.1,0.1,0.2,0.2,0.3c0,0.1,0.1,0.3,0.1,0.4c0,0.4-0.1,0.6-0.4,0.9
			c-0.2,0.2-0.6,0.3-1,0.3c-0.1,0-0.2,0-0.3,0c-0.2,0.1-0.4,0.3-0.4,0.5c0,0.1,0,0.2,0.1,0.2c0.1,0,0.2,0.1,0.4,0.1h0.7
			c0.4,0,0.7,0.1,0.9,0.3c0.2,0.2,0.3,0.4,0.3,0.7c0,0.4-0.2,0.7-0.5,0.9c-0.3,0.2-0.8,0.3-1.3,0.3c-0.5,0-0.9-0.1-1.1-0.3
			c-0.3-0.2-0.4-0.4-0.4-0.8c0-0.2,0.1-0.4,0.2-0.6c0.1-0.2,0.3-0.3,0.6-0.3c-0.1,0-0.2-0.1-0.2-0.2c-0.1-0.1-0.1-0.2-0.1-0.3
			s0-0.3,0.1-0.4c0.1-0.1,0.2-0.2,0.3-0.3c-0.2-0.1-0.3-0.2-0.5-0.4c-0.1-0.2-0.2-0.4-0.2-0.6c0-0.4,0.1-0.7,0.4-0.9
			c0.2-0.2,0.6-0.3,1-0.3c0.2,0,0.4,0,0.5,0.1L138.6,54.4L138.6,54.4L138.6,54.4z M135.8,58.5c0,0.2,0.1,0.3,0.3,0.5
			c0.2,0.1,0.4,0.2,0.7,0.2c0.5,0,0.8-0.1,1-0.2c0.2-0.1,0.3-0.3,0.3-0.6c0-0.2-0.1-0.3-0.2-0.4c0-0.2-0.3-0.2-0.6-0.2h-0.7
			c-0.3,0-0.4,0.1-0.6,0.2C135.9,58.1,135.8,58.3,135.8,58.5z M136.1,55.5c0,0.3,0.1,0.5,0.2,0.6s0.3,0.2,0.6,0.2
			c0.5,0,0.8-0.3,0.8-0.8c0-0.6-0.3-0.8-0.8-0.8c-0.3,0-0.5,0.1-0.6,0.2C136.2,55,136.1,55.2,136.1,55.5z"/>
		<path fill="#FFFFFF" d="M144.4,57.4L144.4,57.4c-0.3,0.4-0.7,0.6-1.2,0.6s-0.9-0.2-1.1-0.5c-0.3-0.3-0.4-0.8-0.4-1.3
			c0-0.6,0.1-1.1,0.4-1.3c0.3-0.3,0.6-0.5,1.1-0.5c0.5,0,0.9,0.2,1.1,0.5l0,0v-0.3v-0.3v-1.4h0.6v5h-0.5V57.4L144.4,57.4z
			 M143.4,57.5c0.4,0,0.7-0.1,0.8-0.3c0.2-0.2,0.3-0.5,0.3-1v-0.1c0-0.5-0.1-0.9-0.3-1.1c-0.2-0.2-0.4-0.3-0.8-0.3
			c-0.3,0-0.6,0.1-0.7,0.4c-0.2,0.3-0.3,0.6-0.3,1.1c0,0.5,0.1,0.8,0.3,1.1C142.8,57.4,143.1,57.5,143.4,57.5z"/>
		<path fill="#FFFFFF" d="M148.1,57.9c-0.5,0-1-0.2-1.3-0.5c-0.3-0.3-0.5-0.8-0.5-1.3c0-0.6,0.1-1.1,0.4-1.3s0.7-0.5,1.2-0.5
			c0.5,0,0.8,0.2,1.1,0.5c0.3,0.3,0.4,0.7,0.4,1.2v0.4h-2.4c0,0.4,0.1,0.8,0.3,1c0.2,0.2,0.5,0.3,0.9,0.3s0.8-0.1,1.2-0.2v0.5
			c-0.2,0.1-0.4,0.1-0.6,0.2C148.5,57.9,148.3,57.9,148.1,57.9z M148.4,52.7c-0.1,0-0.2,0-0.2-0.1c-0.1,0-0.2-0.1-0.2-0.1
			c-0.1,0-0.1-0.1-0.2-0.1c-0.1,0-0.1-0.1-0.2-0.1s-0.2,0-0.2,0.1c0,0.1-0.1,0.1-0.1,0.2H147c0-0.2,0.1-0.4,0.2-0.5
			c0.1-0.1,0.3-0.2,0.4-0.2s0.2,0,0.2,0.1c0.1,0,0.2,0.1,0.2,0.1c0.1,0,0.1,0.1,0.2,0.1c0.1,0,0.1,0.1,0.2,0.1s0.2,0,0.2-0.1
			s0.1-0.1,0.1-0.2h0.3c0,0.2-0.1,0.4-0.2,0.5C148.7,52.7,148.5,52.7,148.4,52.7z M148.9,53.9h-0.3c-0.2-0.1-0.5-0.3-0.7-0.6
			c-0.2,0.2-0.5,0.4-0.7,0.6h-0.3v-0.1l0.2-0.2c0.3-0.3,0.4-0.5,0.5-0.7h0.6C148.3,53.2,148.6,53.5,148.9,53.9L148.9,53.9z
			 M147.9,54.7c-0.3,0-0.5,0.1-0.7,0.3c-0.2,0.2-0.3,0.5-0.3,0.8h1.8c0-0.4-0.1-0.6-0.2-0.8C148.4,54.8,148.2,54.7,147.9,54.7z"/>
		<path fill="#FFFFFF" d="M155.4,57.4L155.4,57.4c-0.3,0.4-0.7,0.6-1.2,0.6c-0.5,0-0.9-0.2-1.1-0.5c-0.3-0.3-0.4-0.8-0.4-1.3
			c0-0.6,0.1-1.1,0.4-1.3c0.3-0.3,0.6-0.5,1.1-0.5c0.5,0,0.9,0.2,1.1,0.5l0,0v-0.3v-0.3v-1.4h0.6v5h-0.5L155.4,57.4L155.4,57.4z
			 M154.4,57.5c0.4,0,0.7-0.1,0.8-0.3c0.2-0.2,0.3-0.5,0.3-1v-0.1c0-0.5-0.1-0.9-0.3-1.1c-0.2-0.2-0.4-0.3-0.8-0.3
			c-0.3,0-0.6,0.1-0.7,0.4c-0.2,0.3-0.3,0.6-0.3,1.1c0,0.5,0.1,0.8,0.3,1.1C153.8,57.4,154.1,57.5,154.4,57.5z"/>
		<path fill="#FFFFFF" d="M159.8,57.9l-0.1-0.5l0,0c-0.2,0.2-0.4,0.4-0.5,0.5c-0.2,0.1-0.4,0.1-0.7,0.1c-0.4,0-0.6-0.1-0.9-0.3
			c-0.2-0.2-0.3-0.5-0.3-0.8c0-0.7,0.6-1.1,1.7-1.2h0.6v-0.2c0-0.3-0.1-0.5-0.2-0.6c-0.1-0.1-0.3-0.2-0.6-0.2c-0.3,0-0.7,0.1-1,0.3
			l-0.2-0.4c0.2-0.1,0.4-0.2,0.6-0.2c0.2-0.1,0.4-0.1,0.6-0.1c0.4,0,0.8,0.1,1,0.3c0.2,0.2,0.3,0.5,0.3,0.9V58L159.8,57.9
			L159.8,57.9L159.8,57.9z M158.5,57.5c0.3,0,0.6-0.1,0.8-0.3c0.2-0.2,0.3-0.5,0.3-0.8v-0.3H159c-0.4,0-0.8,0.1-1,0.2
			c-0.2,0.1-0.3,0.3-0.3,0.6c0,0.2,0.1,0.4,0.2,0.5C158.1,57.4,158.3,57.5,158.5,57.5z M159.2,53.9h-0.4c-0.1-0.1-0.3-0.3-0.5-0.5
			c-0.2-0.2-0.3-0.4-0.4-0.5v-0.1h0.7c0.1,0.2,0.2,0.3,0.3,0.5C159,53.6,159.1,53.7,159.2,53.9L159.2,53.9z"/>
		<path fill="#FFFFFF" d="M164.2,57.9v-2.3c0-0.3-0.1-0.5-0.2-0.7c-0.1-0.1-0.3-0.2-0.6-0.2c-0.4,0-0.7,0.1-0.8,0.3
			c-0.2,0.2-0.3,0.6-0.3,1v1.8h-0.6v-3.6h0.5l0.1,0.5l0,0c0.1-0.2,0.3-0.3,0.5-0.4c0.2-0.1,0.4-0.1,0.7-0.1c0.4,0,0.8,0.1,1,0.3
			c0.2,0.2,0.3,0.6,0.3,1v2.3L164.2,57.9L164.2,57.9z"/>
		<path fill="#FFFFFF" d="M169.2,54.4v0.4l-0.7,0.1c0.1,0.1,0.1,0.2,0.2,0.3c0,0.1,0.1,0.3,0.1,0.4c0,0.4-0.1,0.6-0.4,0.9
			c-0.2,0.2-0.6,0.3-1,0.3c-0.1,0-0.2,0-0.3,0c-0.2,0.1-0.4,0.3-0.4,0.5c0,0.1,0,0.2,0.1,0.2c0.1,0,0.2,0.1,0.4,0.1h0.7
			c0.4,0,0.7,0.1,0.9,0.3c0.2,0.2,0.3,0.4,0.3,0.7c0,0.4-0.2,0.7-0.5,0.9c-0.3,0.2-0.8,0.3-1.3,0.3c-0.5,0-0.9-0.1-1.1-0.3
			c-0.3-0.2-0.4-0.4-0.4-0.8c0-0.2,0.1-0.4,0.2-0.6c0.1-0.2,0.3-0.3,0.6-0.3c-0.1,0-0.2-0.1-0.2-0.2c-0.1-0.1-0.1-0.2-0.1-0.3
			s0-0.3,0.1-0.4c0.1-0.1,0.2-0.2,0.3-0.3c-0.2-0.1-0.3-0.2-0.5-0.4c-0.1-0.2-0.2-0.4-0.2-0.6c0-0.4,0.1-0.7,0.4-0.9
			c0.2-0.2,0.6-0.3,1-0.3c0.2,0,0.4,0,0.5,0.1L169.2,54.4L169.2,54.4z M166.4,58.5c0,0.2,0.1,0.3,0.3,0.5c0.2,0.1,0.4,0.2,0.7,0.2
			c0.5,0,0.8-0.1,1-0.2c0.2-0.1,0.3-0.3,0.3-0.6c0-0.2-0.1-0.3-0.2-0.4c-0.1-0.1-0.4-0.1-0.7-0.1h-0.7c-0.3,0-0.4,0.1-0.6,0.2
			C166.4,58.1,166.4,58.3,166.4,58.5z M166.7,55.5c0,0.3,0.1,0.5,0.2,0.6s0.3,0.2,0.6,0.2c0.5,0,0.8-0.3,0.8-0.8
			c0-0.6-0.3-0.8-0.8-0.8c-0.3,0-0.5,0.1-0.6,0.2C166.7,55,166.7,55.2,166.7,55.5z"/>
		<path fill="#FFFFFF" d="M175.1,57.9v-2.3c0-0.3-0.1-0.5-0.2-0.7c-0.1-0.1-0.3-0.2-0.6-0.2c-0.4,0-0.7,0.1-0.8,0.3
			c-0.2,0.2-0.3,0.6-0.3,1v1.8h-0.6v-5h0.6v1.5c0,0.2,0,0.3,0,0.5l0,0c0.1-0.2,0.3-0.3,0.5-0.4c0.2-0.1,0.4-0.2,0.7-0.2
			c0.4,0,0.8,0.1,1,0.3c0.2,0.2,0.3,0.6,0.3,1v2.3L175.1,57.9L175.1,57.9z"/>
		<path fill="#FFFFFF" d="M180.3,56.1c0,0.6-0.2,1.1-0.5,1.3s-0.7,0.5-1.3,0.5c-0.3,0-0.6-0.1-0.9-0.2c-0.3-0.2-0.5-0.4-0.6-0.7
			s-0.2-0.6-0.2-1c0-0.6,0.1-1.1,0.4-1.4c0.3-0.3,0.7-0.5,1.2-0.5c0.5,0,0.9,0.2,1.2,0.5c0.1,0,0.2-0.1,0.3-0.2
			c0.1-0.1,0.1-0.2,0.1-0.3c0-0.1,0-0.3,0-0.5h0.6l0.1,0.1c-0.1,0.3-0.2,0.6-0.3,0.8c-0.1,0.2-0.3,0.3-0.5,0.4
			C180.2,55.4,180.3,55.7,180.3,56.1z M177.6,56.1c0,0.5,0.1,0.8,0.3,1.1c0.2,0.2,0.5,0.4,0.8,0.4c0.4,0,0.7-0.1,0.9-0.4
			c0.2-0.3,0.3-0.6,0.3-1.1s-0.1-0.8-0.3-1.1c-0.2-0.2-0.5-0.4-0.9-0.4c-0.4,0-0.7,0.1-0.8,0.4C177.7,55.3,177.6,55.7,177.6,56.1z"
			/>
		<path fill="#FFFFFF" d="M184.1,57.9v-2.3c0-0.3-0.1-0.5-0.2-0.7c-0.1-0.1-0.3-0.2-0.6-0.2c-0.4,0-0.7,0.1-0.8,0.3
			c-0.2,0.2-0.3,0.6-0.3,1v1.8h-0.6v-3.6h0.5l0.1,0.5l0,0c0.1-0.2,0.3-0.3,0.5-0.4s0.4-0.1,0.7-0.1c0.4,0,0.8,0.1,1,0.3
			c0.2,0.2,0.3,0.6,0.3,1v2.3L184.1,57.9L184.1,57.9L184.1,57.9z"/>
	</g>
</g>
<path fill="#FFFFFF" d="M78.9,20.2l-25.6,2.3c-2.8,0.3-3.7,1.6-3.7,3.7v26.2c0,2,1.6,3.8,3.8,3.8h0.3c0.4-1.9,2.1-3.4,4.1-3.4
	c2,0,3.8,1.4,4.1,3.4H71c0.4-1.9,2.1-3.4,4.1-3.4c2,0,3.8,1.4,4.1,3.3c1.9-0.2,3.5-1.7,3.5-3.7V23.9C82.7,21.8,81,20.2,78.9,20.2z
	 M78.5,42.6c-0.2,1.3-0.6,2.6-1.2,3.7c-0.6,1.1-1.3,2-2.3,2.7c-1,0.7-2.1,1.2-3.4,1.4c-0.8,0.1-1.5,0.2-2.3,0.1
	c-0.8-0.1-1.3-0.2-1.9-0.4c-0.6-0.2-1.1-0.5-1.4-0.8c-0.4-0.3-1-0.7-1.6-1.3l0.1,0.5c0.2,1,0.1,1.7-0.3,2.3c-0.4,0.6-1,1-1.6,1.1
	c-0.8,0.1-1.3,0-1.8-0.4s-0.9-1.2-1.1-2.1l-3.9-22.4c-0.2-1.1-0.1-1.8,0.2-2.5c0.3-0.6,0.9-1,1.6-1.2c0.8-0.1,1.4,0,1.9,0.5
	c0.6,0.5,0.9,1.2,1.1,2.1l1.3,7.8c0.8-1.2,1.6-2.1,2.5-2.8c0.9-0.7,2.1-1.2,3.6-1.4c1.7-0.3,3.3-0.2,4.7,0.4c1.4,0.6,2.6,1.5,3.7,3
	c1,1.4,1.6,3.2,2,5.3C78.6,39.8,78.7,41.3,78.5,42.6z"/>
<path fill="#FFFFFF" d="M72.1,36c-0.6-0.9-1.3-1.5-2-1.9c-0.8-0.4-1.7-0.5-2.6-0.4c-1,0.2-1.8,0.6-2.5,1.3s-1.2,1.5-1.3,2.6
	c-0.3,1.1-0.3,2.3,0,3.8c0.4,2,1.2,3.6,2.2,4.4c1.2,1,2.4,1.3,4,1c1.3-0.2,2.3-1,3.1-2.3c0.8-1.3,0.9-3,0.6-5.1
	C73.1,38,72.7,36.8,72.1,36z"/>
<circle fill="#FFFFFF" cx="75.1" cy="57.1" r="2.6"/>
<circle fill="#FFFFFF" cx="57.7" cy="57.1" r="2.6"/>
<g>
	<path fill="#DF1E26" d="M70.2,10.9c0.3-0.1-1.2,0.3-2.6-0.3c-1.5-0.5-1.6-3.3-8-4.6s-5.1-3.7-7.6-2c0,0-9.5,7.7-10.1,13.1
		c-0.2,0.1-0.6,3.2-2,4.5c0,0-2.8,2,2.1,5.1c0,0,1.9,2.3,2.1,5.6c0,0,0.3,1.6,0,2.5c-0.3,0.9,4.2-0.2,4.2-0.2s0.4-3.1-0.5-6.6
		c0,0-1.8-3.5-0.1-6.6c1.6-3.1,4.1-2,7.2-3.2c3-1.2,7-1.6,8.6-3C65,13.9,69.7,11.1,70.2,10.9"/>
	<path fill="#FFFFFF" d="M46.5,22.9c0-0.2-1.4-4.3,4.2-5.5c5.6-1.1,3,0.2,6-1.6c3.1-1.8,3.5-2.4,8.1-3.5c4.6-1.1,6-1.9,7.6-0.5
		c0,0,6.1,8.4,2.4,10c-0.1,0-7-0.4-12.8,3.1c-3.8,2.3-9,8.5-12.4,7.9c0,0-3.4-0.6-3-5.4C46.7,27.2,46.4,25.4,46.5,22.9"/>
	<path fill="#FFFFFF" d="M45.1,34c0,0-1,0-2.1,0.9c-0.8,0.6-1.9,1.7-2,2.8c-0.1,1.2,0.1,4.2,2.9,4.9c2.8,0.7,5.7,0,6.2-1
		c0.6-1.1,0.8-3.6,0.8-4.5c0-1.9-2.9-3.1-2.9-3.1S45.8,33.9,45.1,34"/>
</g>
</svg>
